<mxfile host="app.diagrams.net" modified="2021-07-01T13:38:33.240Z" agent="5.0 (Windows NT 10.0; Win64; x64) AppleWebKit/537.36 (KHTML, like Gecko) Chrome/91.0.4472.124 Safari/537.36" etag="9v6aA-9RIMsx7Ttx5sOW" version="14.8.2" type="github">
  <diagram name="[1] ctd" id="VE4x6YazyZ2CrUnz0_BO">
    <mxGraphModel dx="2062" dy="1122" grid="0" gridSize="1" guides="1" tooltips="1" connect="1" arrows="1" fold="1" page="1" pageScale="1" pageWidth="827" pageHeight="583" background="#4D5766" math="0" shadow="0">
      <root>
        <mxCell id="YSi4LTzmmD1kewjckfzm-0" />
        <mxCell id="YSi4LTzmmD1kewjckfzm-1" parent="YSi4LTzmmD1kewjckfzm-0" />
        <mxCell id="YSi4LTzmmD1kewjckfzm-29" value="&lt;font&gt;leaf01&lt;/font&gt;" style="text;html=1;align=center;verticalAlign=middle;resizable=0;points=[];autosize=1;fontSize=14;fontFamily=Manrope;fontStyle=0;fontColor=#FFFFFF;" parent="YSi4LTzmmD1kewjckfzm-1" vertex="1">
          <mxGeometry x="226" y="266.5" width="49" height="22" as="geometry" />
        </mxCell>
        <mxCell id="YSi4LTzmmD1kewjckfzm-50" value="&lt;font&gt;leaf02&lt;/font&gt;" style="text;html=1;align=center;verticalAlign=middle;resizable=0;points=[];autosize=1;fontSize=14;fontFamily=Manrope;fontStyle=0;fontColor=#FFFFFF;" parent="YSi4LTzmmD1kewjckfzm-1" vertex="1">
          <mxGeometry x="538" y="266.5" width="52" height="22" as="geometry" />
        </mxCell>
        <mxCell id="YSi4LTzmmD1kewjckfzm-52" style="edgeStyle=orthogonalEdgeStyle;rounded=0;orthogonalLoop=1;jettySize=auto;html=1;fontFamily=Manrope;fontSize=12;fontColor=#FFFFFF;endArrow=oval;endFill=1;startArrow=oval;startFill=1;entryX=1;entryY=0.5;entryDx=0;entryDy=0;exitX=0;exitY=0.5;exitDx=0;exitDy=0;strokeColor=#98A2AE;" parent="YSi4LTzmmD1kewjckfzm-1" source="YSi4LTzmmD1kewjckfzm-54" target="YSi4LTzmmD1kewjckfzm-53" edge="1">
          <mxGeometry relative="1" as="geometry">
            <mxPoint x="380" y="253.5" as="sourcePoint" />
            <mxPoint x="380" y="293.5" as="targetPoint" />
          </mxGeometry>
        </mxCell>
        <mxCell id="YSi4LTzmmD1kewjckfzm-53" value="swp49" style="rounded=0;whiteSpace=wrap;html=1;fontFamily=Manrope;fontSize=12;fontColor=#FFFFFF;align=center;strokeColor=none;rotation=0;horizontal=1;fillColor=#98A2AE;" parent="YSi4LTzmmD1kewjckfzm-1" vertex="1">
          <mxGeometry x="276" y="294.49" width="45" height="16.25" as="geometry" />
        </mxCell>
        <mxCell id="YSi4LTzmmD1kewjckfzm-54" value="swp49" style="rounded=0;whiteSpace=wrap;html=1;fontFamily=Manrope;fontSize=12;fontColor=#FFFFFF;align=center;strokeColor=none;rotation=0;horizontal=1;fillColor=#98A2AE;" parent="YSi4LTzmmD1kewjckfzm-1" vertex="1">
          <mxGeometry x="497" y="294" width="45" height="16.25" as="geometry" />
        </mxCell>
        <mxCell id="c50cETsrshJQtFmZsEgO-0" value="swp50" style="rounded=0;whiteSpace=wrap;html=1;fontFamily=Manrope;fontSize=12;fontColor=#FFFFFF;align=center;strokeColor=none;rotation=0;horizontal=1;fillColor=#98A2AE;" parent="YSi4LTzmmD1kewjckfzm-1" vertex="1">
          <mxGeometry x="276" y="315.49" width="45" height="16.25" as="geometry" />
        </mxCell>
        <mxCell id="c50cETsrshJQtFmZsEgO-1" value="swp50" style="rounded=0;whiteSpace=wrap;html=1;fontFamily=Manrope;fontSize=12;fontColor=#FFFFFF;align=center;strokeColor=none;rotation=0;horizontal=1;fillColor=#98A2AE;" parent="YSi4LTzmmD1kewjckfzm-1" vertex="1">
          <mxGeometry x="497" y="315" width="45" height="16.25" as="geometry" />
        </mxCell>
        <mxCell id="c50cETsrshJQtFmZsEgO-2" style="edgeStyle=orthogonalEdgeStyle;rounded=0;orthogonalLoop=1;jettySize=auto;html=1;fontFamily=Manrope;fontSize=12;fontColor=#FFFFFF;endArrow=oval;endFill=1;startArrow=oval;startFill=1;entryX=1;entryY=0.5;entryDx=0;entryDy=0;exitX=0;exitY=0.5;exitDx=0;exitDy=0;strokeColor=#98A2AE;" parent="YSi4LTzmmD1kewjckfzm-1" source="c50cETsrshJQtFmZsEgO-1" target="c50cETsrshJQtFmZsEgO-0" edge="1">
          <mxGeometry relative="1" as="geometry">
            <mxPoint x="498" y="303.125" as="sourcePoint" />
            <mxPoint x="322" y="303.615" as="targetPoint" />
          </mxGeometry>
        </mxCell>
        <mxCell id="c50cETsrshJQtFmZsEgO-10" value="&lt;font&gt;spine01&lt;/font&gt;" style="text;html=1;align=center;verticalAlign=middle;resizable=0;points=[];autosize=1;fontSize=14;fontFamily=Manrope;fontStyle=0;fontColor=#FFFFFF;" parent="YSi4LTzmmD1kewjckfzm-1" vertex="1">
          <mxGeometry x="387" y="114" width="60" height="22" as="geometry" />
        </mxCell>
        <mxCell id="c50cETsrshJQtFmZsEgO-11" value="swp51" style="rounded=0;whiteSpace=wrap;html=1;fontFamily=Manrope;fontSize=12;fontColor=#FFFFFF;align=center;strokeColor=none;rotation=0;horizontal=1;fillColor=#98A2AE;" parent="YSi4LTzmmD1kewjckfzm-1" vertex="1">
          <mxGeometry x="185" y="305.38" width="45" height="16.25" as="geometry" />
        </mxCell>
        <mxCell id="zymXsyfbvbzfv6g_wWVn-0" value="&amp;nbsp;swp1" style="rounded=0;whiteSpace=wrap;html=1;fontFamily=Manrope;fontSize=12;fontColor=#FFFFFF;align=left;strokeColor=none;rotation=0;horizontal=1;fillColor=#98A2AE;" parent="YSi4LTzmmD1kewjckfzm-1" vertex="1">
          <mxGeometry x="357" y="150.88" width="45" height="16.25" as="geometry" />
        </mxCell>
        <mxCell id="zymXsyfbvbzfv6g_wWVn-1" value="&amp;nbsp;swp2&amp;nbsp;" style="rounded=0;whiteSpace=wrap;html=1;fontFamily=Manrope;fontSize=12;fontColor=#FFFFFF;align=right;strokeColor=none;rotation=0;horizontal=1;fillColor=#98A2AE;" parent="YSi4LTzmmD1kewjckfzm-1" vertex="1">
          <mxGeometry x="433" y="150.88" width="45" height="16.25" as="geometry" />
        </mxCell>
        <mxCell id="c50cETsrshJQtFmZsEgO-3" value="" style="group" parent="YSi4LTzmmD1kewjckfzm-1" vertex="1" connectable="0">
          <mxGeometry x="391" y="134" width="50" height="50" as="geometry" />
        </mxCell>
        <mxCell id="c50cETsrshJQtFmZsEgO-4" value="" style="group" parent="c50cETsrshJQtFmZsEgO-3" vertex="1" connectable="0">
          <mxGeometry width="50" height="50" as="geometry" />
        </mxCell>
        <mxCell id="c50cETsrshJQtFmZsEgO-5" value="" style="whiteSpace=wrap;html=1;aspect=fixed;strokeColor=none;connectable=1;allowArrows=1;fontFamily=Manrope;fontSource=https%3A%2F%2Ffonts.googleapis.com%2Fcss%3Ffamily%3DManrope;fillColor=#76b900;" parent="c50cETsrshJQtFmZsEgO-4" vertex="1">
          <mxGeometry width="50" height="50" as="geometry" />
        </mxCell>
        <mxCell id="c50cETsrshJQtFmZsEgO-6" value="" style="endArrow=open;html=1;edgeStyle=orthogonalEdgeStyle;rounded=0;endFill=0;startSize=6;endSize=2;strokeColor=#FFFFFF;fontFamily=Manrope;fontSource=https%3A%2F%2Ffonts.googleapis.com%2Fcss%3Ffamily%3DManrope;" parent="c50cETsrshJQtFmZsEgO-4" edge="1">
          <mxGeometry width="83.33333333333334" height="83.33333333333334" as="geometry">
            <mxPoint x="5" y="20" as="sourcePoint" />
            <mxPoint x="18.333333333333336" y="5" as="targetPoint" />
            <Array as="points">
              <mxPoint x="18.333333333333336" y="20" />
            </Array>
          </mxGeometry>
        </mxCell>
        <mxCell id="c50cETsrshJQtFmZsEgO-7" value="" style="endArrow=open;html=1;edgeStyle=orthogonalEdgeStyle;rounded=0;endFill=0;startSize=6;endSize=2;strokeColor=#FFFFFF;fontFamily=Manrope;fontSource=https%3A%2F%2Ffonts.googleapis.com%2Fcss%3Ffamily%3DManrope;" parent="c50cETsrshJQtFmZsEgO-4" edge="1">
          <mxGeometry width="83.33333333333334" height="83.33333333333334" as="geometry">
            <mxPoint x="18.333333333333336" y="45" as="sourcePoint" />
            <mxPoint x="5" y="31.666666666666668" as="targetPoint" />
            <Array as="points">
              <mxPoint x="18.333333333333336" y="31.666666666666668" />
            </Array>
          </mxGeometry>
        </mxCell>
        <mxCell id="c50cETsrshJQtFmZsEgO-8" value="" style="endArrow=open;html=1;edgeStyle=orthogonalEdgeStyle;rounded=0;endFill=0;startSize=6;endSize=2;strokeColor=#FFFFFF;fontFamily=Manrope;fontSource=https%3A%2F%2Ffonts.googleapis.com%2Fcss%3Ffamily%3DManrope;" parent="c50cETsrshJQtFmZsEgO-4" edge="1">
          <mxGeometry width="83.33333333333334" height="83.33333333333334" as="geometry">
            <mxPoint x="30" y="5" as="sourcePoint" />
            <mxPoint x="45" y="20" as="targetPoint" />
            <Array as="points">
              <mxPoint x="30" y="20" />
            </Array>
          </mxGeometry>
        </mxCell>
        <mxCell id="c50cETsrshJQtFmZsEgO-9" value="" style="endArrow=open;html=1;edgeStyle=orthogonalEdgeStyle;rounded=0;endFill=0;startSize=6;endSize=2;strokeColor=#FFFFFF;fontFamily=Manrope;fontSource=https%3A%2F%2Ffonts.googleapis.com%2Fcss%3Ffamily%3DManrope;" parent="c50cETsrshJQtFmZsEgO-4" edge="1">
          <mxGeometry width="83.33333333333334" height="83.33333333333334" as="geometry">
            <mxPoint x="45" y="31.666666666666668" as="sourcePoint" />
            <mxPoint x="30" y="45" as="targetPoint" />
            <Array as="points">
              <mxPoint x="30" y="31.666666666666668" />
            </Array>
          </mxGeometry>
        </mxCell>
        <mxCell id="zymXsyfbvbzfv6g_wWVn-3" value="swp51" style="rounded=0;whiteSpace=wrap;html=1;fontFamily=Manrope;fontSize=12;fontColor=#FFFFFF;align=center;strokeColor=none;rotation=0;horizontal=1;fillColor=#98A2AE;" parent="YSi4LTzmmD1kewjckfzm-1" vertex="1">
          <mxGeometry x="585" y="305.38" width="45" height="16.25" as="geometry" />
        </mxCell>
        <mxCell id="YSi4LTzmmD1kewjckfzm-43" value="" style="group;fontColor=#76b900;" parent="YSi4LTzmmD1kewjckfzm-1" vertex="1" connectable="0">
          <mxGeometry x="539" y="288.5" width="50" height="50" as="geometry" />
        </mxCell>
        <mxCell id="YSi4LTzmmD1kewjckfzm-44" value="" style="group" parent="YSi4LTzmmD1kewjckfzm-43" vertex="1" connectable="0">
          <mxGeometry width="50" height="50" as="geometry" />
        </mxCell>
        <mxCell id="YSi4LTzmmD1kewjckfzm-45" value="" style="whiteSpace=wrap;html=1;aspect=fixed;strokeColor=none;connectable=1;allowArrows=1;fontFamily=Manrope;fontSource=https%3A%2F%2Ffonts.googleapis.com%2Fcss%3Ffamily%3DManrope;fillColor=#76b900;" parent="YSi4LTzmmD1kewjckfzm-44" vertex="1">
          <mxGeometry width="50" height="50" as="geometry" />
        </mxCell>
        <mxCell id="YSi4LTzmmD1kewjckfzm-46" value="" style="endArrow=open;html=1;edgeStyle=orthogonalEdgeStyle;rounded=0;endFill=0;startSize=6;endSize=2;strokeColor=#FFFFFF;fontFamily=Manrope;fontSource=https%3A%2F%2Ffonts.googleapis.com%2Fcss%3Ffamily%3DManrope;" parent="YSi4LTzmmD1kewjckfzm-44" edge="1">
          <mxGeometry width="83.33333333333334" height="83.33333333333334" as="geometry">
            <mxPoint x="5" y="20" as="sourcePoint" />
            <mxPoint x="18.333333333333336" y="5" as="targetPoint" />
            <Array as="points">
              <mxPoint x="18.333333333333336" y="20" />
            </Array>
          </mxGeometry>
        </mxCell>
        <mxCell id="YSi4LTzmmD1kewjckfzm-47" value="" style="endArrow=open;html=1;edgeStyle=orthogonalEdgeStyle;rounded=0;endFill=0;startSize=6;endSize=2;strokeColor=#FFFFFF;fontFamily=Manrope;fontSource=https%3A%2F%2Ffonts.googleapis.com%2Fcss%3Ffamily%3DManrope;" parent="YSi4LTzmmD1kewjckfzm-44" edge="1">
          <mxGeometry width="83.33333333333334" height="83.33333333333334" as="geometry">
            <mxPoint x="18.333333333333336" y="45" as="sourcePoint" />
            <mxPoint x="5" y="31.666666666666668" as="targetPoint" />
            <Array as="points">
              <mxPoint x="18.333333333333336" y="31.666666666666668" />
            </Array>
          </mxGeometry>
        </mxCell>
        <mxCell id="YSi4LTzmmD1kewjckfzm-48" value="" style="endArrow=open;html=1;edgeStyle=orthogonalEdgeStyle;rounded=0;endFill=0;startSize=6;endSize=2;strokeColor=#FFFFFF;fontFamily=Manrope;fontSource=https%3A%2F%2Ffonts.googleapis.com%2Fcss%3Ffamily%3DManrope;" parent="YSi4LTzmmD1kewjckfzm-44" edge="1">
          <mxGeometry width="83.33333333333334" height="83.33333333333334" as="geometry">
            <mxPoint x="30" y="5" as="sourcePoint" />
            <mxPoint x="45" y="20" as="targetPoint" />
            <Array as="points">
              <mxPoint x="30" y="20" />
            </Array>
          </mxGeometry>
        </mxCell>
        <mxCell id="YSi4LTzmmD1kewjckfzm-49" value="" style="endArrow=open;html=1;edgeStyle=orthogonalEdgeStyle;rounded=0;endFill=0;startSize=6;endSize=2;strokeColor=#FFFFFF;fontFamily=Manrope;fontSource=https%3A%2F%2Ffonts.googleapis.com%2Fcss%3Ffamily%3DManrope;" parent="YSi4LTzmmD1kewjckfzm-44" edge="1">
          <mxGeometry width="83.33333333333334" height="83.33333333333334" as="geometry">
            <mxPoint x="45" y="31.666666666666668" as="sourcePoint" />
            <mxPoint x="30" y="45" as="targetPoint" />
            <Array as="points">
              <mxPoint x="30" y="31.666666666666668" />
            </Array>
          </mxGeometry>
        </mxCell>
        <mxCell id="YSi4LTzmmD1kewjckfzm-22" value="" style="group" parent="YSi4LTzmmD1kewjckfzm-1" vertex="1" connectable="0">
          <mxGeometry x="226" y="288.5" width="50" height="50" as="geometry" />
        </mxCell>
        <mxCell id="YSi4LTzmmD1kewjckfzm-23" value="" style="group" parent="YSi4LTzmmD1kewjckfzm-22" vertex="1" connectable="0">
          <mxGeometry width="50" height="50" as="geometry" />
        </mxCell>
        <mxCell id="YSi4LTzmmD1kewjckfzm-24" value="" style="whiteSpace=wrap;html=1;aspect=fixed;strokeColor=none;connectable=1;allowArrows=1;fontFamily=Manrope;fontSource=https%3A%2F%2Ffonts.googleapis.com%2Fcss%3Ffamily%3DManrope;fillColor=#76b900;" parent="YSi4LTzmmD1kewjckfzm-23" vertex="1">
          <mxGeometry width="50" height="50" as="geometry" />
        </mxCell>
        <mxCell id="YSi4LTzmmD1kewjckfzm-26" value="" style="endArrow=open;html=1;edgeStyle=orthogonalEdgeStyle;rounded=0;endFill=0;startSize=6;endSize=2;strokeColor=#FFFFFF;fontFamily=Manrope;fontSource=https%3A%2F%2Ffonts.googleapis.com%2Fcss%3Ffamily%3DManrope;" parent="YSi4LTzmmD1kewjckfzm-23" edge="1">
          <mxGeometry width="83.33333333333334" height="83.33333333333334" as="geometry">
            <mxPoint x="18.333333333333336" y="45" as="sourcePoint" />
            <mxPoint x="5" y="31.666666666666668" as="targetPoint" />
            <Array as="points">
              <mxPoint x="18.333333333333336" y="31.666666666666668" />
            </Array>
          </mxGeometry>
        </mxCell>
        <mxCell id="YSi4LTzmmD1kewjckfzm-27" value="" style="endArrow=open;html=1;edgeStyle=orthogonalEdgeStyle;rounded=0;endFill=0;startSize=6;endSize=2;strokeColor=#FFFFFF;fontFamily=Manrope;fontSource=https%3A%2F%2Ffonts.googleapis.com%2Fcss%3Ffamily%3DManrope;" parent="YSi4LTzmmD1kewjckfzm-23" edge="1">
          <mxGeometry width="83.33333333333334" height="83.33333333333334" as="geometry">
            <mxPoint x="30" y="5" as="sourcePoint" />
            <mxPoint x="45" y="20" as="targetPoint" />
            <Array as="points">
              <mxPoint x="30" y="20" />
            </Array>
          </mxGeometry>
        </mxCell>
        <mxCell id="YSi4LTzmmD1kewjckfzm-28" value="" style="endArrow=open;html=1;edgeStyle=orthogonalEdgeStyle;rounded=0;endFill=0;startSize=6;endSize=2;strokeColor=#FFFFFF;fontFamily=Manrope;fontSource=https%3A%2F%2Ffonts.googleapis.com%2Fcss%3Ffamily%3DManrope;" parent="YSi4LTzmmD1kewjckfzm-23" edge="1">
          <mxGeometry width="83.33333333333334" height="83.33333333333334" as="geometry">
            <mxPoint x="45" y="31.666666666666668" as="sourcePoint" />
            <mxPoint x="30" y="45" as="targetPoint" />
            <Array as="points">
              <mxPoint x="30" y="31.666666666666668" />
            </Array>
          </mxGeometry>
        </mxCell>
        <mxCell id="YSi4LTzmmD1kewjckfzm-25" value="" style="endArrow=open;html=1;edgeStyle=orthogonalEdgeStyle;rounded=0;endFill=0;startSize=6;endSize=2;strokeColor=#FFFFFF;fontFamily=Manrope;fontSource=https%3A%2F%2Ffonts.googleapis.com%2Fcss%3Ffamily%3DManrope;" parent="YSi4LTzmmD1kewjckfzm-23" edge="1">
          <mxGeometry width="83.33333333333334" height="83.33333333333334" as="geometry">
            <mxPoint x="5" y="20" as="sourcePoint" />
            <mxPoint x="18.333333333333336" y="5" as="targetPoint" />
            <Array as="points">
              <mxPoint x="18.333333333333336" y="20" />
            </Array>
          </mxGeometry>
        </mxCell>
        <mxCell id="zymXsyfbvbzfv6g_wWVn-4" style="edgeStyle=orthogonalEdgeStyle;rounded=0;orthogonalLoop=1;jettySize=auto;html=1;fontFamily=Manrope;fontSize=12;fontColor=#FFFFFF;endArrow=oval;endFill=1;startArrow=oval;startFill=1;entryX=0;entryY=0.5;entryDx=0;entryDy=0;exitX=0;exitY=0.5;exitDx=0;exitDy=0;strokeColor=#98A2AE;" parent="YSi4LTzmmD1kewjckfzm-1" source="zymXsyfbvbzfv6g_wWVn-0" target="c50cETsrshJQtFmZsEgO-11" edge="1">
          <mxGeometry relative="1" as="geometry">
            <mxPoint x="498" y="303.125" as="sourcePoint" />
            <mxPoint x="322" y="303.615" as="targetPoint" />
          </mxGeometry>
        </mxCell>
        <mxCell id="zymXsyfbvbzfv6g_wWVn-5" style="edgeStyle=orthogonalEdgeStyle;rounded=0;orthogonalLoop=1;jettySize=auto;html=1;fontFamily=Manrope;fontSize=12;fontColor=#FFFFFF;endArrow=oval;endFill=1;startArrow=oval;startFill=1;entryX=1;entryY=0.5;entryDx=0;entryDy=0;strokeColor=#98A2AE;exitX=1;exitY=0.5;exitDx=0;exitDy=0;" parent="YSi4LTzmmD1kewjckfzm-1" source="zymXsyfbvbzfv6g_wWVn-1" target="zymXsyfbvbzfv6g_wWVn-3" edge="1">
          <mxGeometry relative="1" as="geometry">
            <mxPoint x="466" y="155" as="sourcePoint" />
            <mxPoint x="186" y="314.505" as="targetPoint" />
          </mxGeometry>
        </mxCell>
        <mxCell id="uKsjjwP2O_oyQqss1sfx-2" value="eth1" style="rounded=0;whiteSpace=wrap;html=1;fontFamily=Manrope;fontSize=12;fontColor=#FFFFFF;align=center;strokeColor=none;rotation=0;horizontal=1;fillColor=#98A2AE;" parent="YSi4LTzmmD1kewjckfzm-1" vertex="1">
          <mxGeometry x="168" y="423.62" width="45" height="16.25" as="geometry" />
        </mxCell>
        <mxCell id="uKsjjwP2O_oyQqss1sfx-3" value="eth2" style="rounded=0;whiteSpace=wrap;html=1;fontFamily=Manrope;fontSize=12;fontColor=#FFFFFF;align=center;strokeColor=none;rotation=0;horizontal=1;fillColor=#98A2AE;" parent="YSi4LTzmmD1kewjckfzm-1" vertex="1">
          <mxGeometry x="291" y="423.63" width="45" height="16.25" as="geometry" />
        </mxCell>
        <mxCell id="uKsjjwP2O_oyQqss1sfx-0" value="server01" style="rounded=0;whiteSpace=wrap;html=1;fontSize=12;align=center;strokeColor=none;fontFamily=Manrope;fontSource=https%3A%2F%2Ffonts.googleapis.com%2Fcss%3Ffamily%3DManrope;fontColor=#FFFFFF;fillColor=#124191;" parent="YSi4LTzmmD1kewjckfzm-1" vertex="1">
          <mxGeometry x="207.75" y="413" width="86.5" height="37.5" as="geometry" />
        </mxCell>
        <mxCell id="uKsjjwP2O_oyQqss1sfx-5" value="swp1" style="rounded=0;whiteSpace=wrap;html=1;fontFamily=Manrope;fontSize=12;fontColor=#FFFFFF;align=center;strokeColor=none;rotation=0;horizontal=1;fillColor=#98A2AE;" parent="YSi4LTzmmD1kewjckfzm-1" vertex="1">
          <mxGeometry x="185" y="353" width="45" height="16.25" as="geometry" />
        </mxCell>
        <mxCell id="uKsjjwP2O_oyQqss1sfx-6" value="swp2" style="rounded=0;whiteSpace=wrap;html=1;fontFamily=Manrope;fontSize=12;fontColor=#FFFFFF;align=center;strokeColor=none;rotation=0;horizontal=1;fillColor=#98A2AE;" parent="YSi4LTzmmD1kewjckfzm-1" vertex="1">
          <mxGeometry x="272" y="353" width="45" height="16.25" as="geometry" />
        </mxCell>
        <mxCell id="uKsjjwP2O_oyQqss1sfx-7" value="eth1" style="rounded=0;whiteSpace=wrap;html=1;fontFamily=Manrope;fontSize=12;fontColor=#FFFFFF;align=center;strokeColor=none;rotation=0;horizontal=1;fillColor=#98A2AE;" parent="YSi4LTzmmD1kewjckfzm-1" vertex="1">
          <mxGeometry x="480" y="423.63" width="45" height="16.25" as="geometry" />
        </mxCell>
        <mxCell id="uKsjjwP2O_oyQqss1sfx-8" value="eth2" style="rounded=0;whiteSpace=wrap;html=1;fontFamily=Manrope;fontSize=12;fontColor=#FFFFFF;align=center;strokeColor=none;rotation=0;horizontal=1;fillColor=#98A2AE;" parent="YSi4LTzmmD1kewjckfzm-1" vertex="1">
          <mxGeometry x="603" y="423.64" width="45" height="16.25" as="geometry" />
        </mxCell>
        <mxCell id="uKsjjwP2O_oyQqss1sfx-9" value="server01" style="rounded=0;whiteSpace=wrap;html=1;fontSize=12;align=center;strokeColor=none;fontFamily=Manrope;fontSource=https%3A%2F%2Ffonts.googleapis.com%2Fcss%3Ffamily%3DManrope;fontColor=#FFFFFF;fillColor=#124191;" parent="YSi4LTzmmD1kewjckfzm-1" vertex="1">
          <mxGeometry x="519.75" y="413.01" width="86.5" height="37.5" as="geometry" />
        </mxCell>
        <mxCell id="uKsjjwP2O_oyQqss1sfx-10" value="swp1" style="rounded=0;whiteSpace=wrap;html=1;fontFamily=Manrope;fontSize=12;fontColor=#FFFFFF;align=center;strokeColor=none;rotation=0;horizontal=1;fillColor=#98A2AE;" parent="YSi4LTzmmD1kewjckfzm-1" vertex="1">
          <mxGeometry x="497" y="350" width="45" height="16.25" as="geometry" />
        </mxCell>
        <mxCell id="uKsjjwP2O_oyQqss1sfx-11" value="swp2" style="rounded=0;whiteSpace=wrap;html=1;fontFamily=Manrope;fontSize=12;fontColor=#FFFFFF;align=center;strokeColor=none;rotation=0;horizontal=1;fillColor=#98A2AE;" parent="YSi4LTzmmD1kewjckfzm-1" vertex="1">
          <mxGeometry x="585" y="350" width="45" height="16.25" as="geometry" />
        </mxCell>
        <mxCell id="uKsjjwP2O_oyQqss1sfx-12" style="edgeStyle=orthogonalEdgeStyle;rounded=0;orthogonalLoop=1;jettySize=auto;html=1;fontFamily=Manrope;fontSize=12;fontColor=#FFFFFF;endArrow=oval;endFill=1;startArrow=oval;startFill=1;entryX=0;entryY=0.5;entryDx=0;entryDy=0;exitX=0;exitY=0.5;exitDx=0;exitDy=0;strokeColor=#98A2AE;" parent="YSi4LTzmmD1kewjckfzm-1" source="uKsjjwP2O_oyQqss1sfx-5" target="uKsjjwP2O_oyQqss1sfx-2" edge="1">
          <mxGeometry relative="1" as="geometry">
            <mxPoint x="498" y="324.125" as="sourcePoint" />
            <mxPoint x="322" y="324.6149999999999" as="targetPoint" />
          </mxGeometry>
        </mxCell>
        <mxCell id="uKsjjwP2O_oyQqss1sfx-13" style="edgeStyle=entityRelationEdgeStyle;rounded=0;orthogonalLoop=1;jettySize=auto;html=1;fontFamily=Manrope;fontSize=12;fontColor=#FFFFFF;endArrow=oval;endFill=1;startArrow=oval;startFill=1;entryX=1;entryY=0.5;entryDx=0;entryDy=0;exitX=0;exitY=0.5;exitDx=0;exitDy=0;strokeColor=#98A2AE;" parent="YSi4LTzmmD1kewjckfzm-1" source="uKsjjwP2O_oyQqss1sfx-10" target="uKsjjwP2O_oyQqss1sfx-3" edge="1">
          <mxGeometry relative="1" as="geometry">
            <mxPoint x="201" y="370.125" as="sourcePoint" />
            <mxPoint x="168.9999999999999" y="432.745" as="targetPoint" />
          </mxGeometry>
        </mxCell>
        <mxCell id="uKsjjwP2O_oyQqss1sfx-14" style="edgeStyle=entityRelationEdgeStyle;rounded=0;orthogonalLoop=1;jettySize=auto;html=1;fontFamily=Manrope;fontSize=12;fontColor=#FFFFFF;endArrow=oval;endFill=1;startArrow=oval;startFill=1;entryX=0;entryY=0.5;entryDx=0;entryDy=0;exitX=1;exitY=0.5;exitDx=0;exitDy=0;strokeColor=#98A2AE;" parent="YSi4LTzmmD1kewjckfzm-1" source="uKsjjwP2O_oyQqss1sfx-6" target="uKsjjwP2O_oyQqss1sfx-7" edge="1">
          <mxGeometry relative="1" as="geometry">
            <mxPoint x="514" y="370.125" as="sourcePoint" />
            <mxPoint x="337" y="432.755" as="targetPoint" />
          </mxGeometry>
        </mxCell>
        <mxCell id="uKsjjwP2O_oyQqss1sfx-15" style="edgeStyle=orthogonalEdgeStyle;rounded=0;orthogonalLoop=1;jettySize=auto;html=1;fontFamily=Manrope;fontSize=12;fontColor=#FFFFFF;endArrow=oval;endFill=1;startArrow=oval;startFill=1;entryX=1;entryY=0.5;entryDx=0;entryDy=0;strokeColor=#98A2AE;exitX=1;exitY=0.5;exitDx=0;exitDy=0;" parent="YSi4LTzmmD1kewjckfzm-1" source="uKsjjwP2O_oyQqss1sfx-11" target="uKsjjwP2O_oyQqss1sfx-8" edge="1">
          <mxGeometry relative="1" as="geometry">
            <mxPoint x="614" y="380" as="sourcePoint" />
            <mxPoint x="168.9999999999999" y="432.745" as="targetPoint" />
          </mxGeometry>
        </mxCell>
        <mxCell id="uKsjjwP2O_oyQqss1sfx-16" style="rounded=0;orthogonalLoop=1;jettySize=auto;html=1;fontFamily=Manrope;fontSize=12;fontColor=#FFFFFF;endArrow=none;endFill=0;startArrow=none;startFill=0;entryX=0.5;entryY=0;entryDx=0;entryDy=0;exitX=0;exitY=1;exitDx=0;exitDy=0;strokeColor=#98A2AE;elbow=vertical;" parent="YSi4LTzmmD1kewjckfzm-1" source="YSi4LTzmmD1kewjckfzm-24" target="uKsjjwP2O_oyQqss1sfx-5" edge="1">
          <mxGeometry relative="1" as="geometry">
            <mxPoint x="201" y="370.125" as="sourcePoint" />
            <mxPoint x="169" y="432.745" as="targetPoint" />
          </mxGeometry>
        </mxCell>
        <mxCell id="uKsjjwP2O_oyQqss1sfx-17" style="rounded=0;orthogonalLoop=1;jettySize=auto;html=1;fontFamily=Manrope;fontSize=12;fontColor=#FFFFFF;endArrow=none;endFill=0;startArrow=none;startFill=0;entryX=0.5;entryY=0;entryDx=0;entryDy=0;exitX=1;exitY=1;exitDx=0;exitDy=0;strokeColor=#98A2AE;elbow=vertical;" parent="YSi4LTzmmD1kewjckfzm-1" source="YSi4LTzmmD1kewjckfzm-24" target="uKsjjwP2O_oyQqss1sfx-6" edge="1">
          <mxGeometry relative="1" as="geometry">
            <mxPoint x="239.5" y="339.5" as="sourcePoint" />
            <mxPoint x="223.5" y="362" as="targetPoint" />
          </mxGeometry>
        </mxCell>
        <mxCell id="uKsjjwP2O_oyQqss1sfx-18" style="rounded=0;orthogonalLoop=1;jettySize=auto;html=1;fontFamily=Manrope;fontSize=12;fontColor=#FFFFFF;endArrow=none;endFill=0;startArrow=none;startFill=0;entryX=0.5;entryY=0;entryDx=0;entryDy=0;exitX=0;exitY=1;exitDx=0;exitDy=0;strokeColor=#98A2AE;elbow=vertical;" parent="YSi4LTzmmD1kewjckfzm-1" source="YSi4LTzmmD1kewjckfzm-45" target="uKsjjwP2O_oyQqss1sfx-10" edge="1">
          <mxGeometry relative="1" as="geometry">
            <mxPoint x="264.5" y="339.5" as="sourcePoint" />
            <mxPoint x="280.5" y="362" as="targetPoint" />
          </mxGeometry>
        </mxCell>
        <mxCell id="uKsjjwP2O_oyQqss1sfx-19" style="rounded=0;orthogonalLoop=1;jettySize=auto;html=1;fontFamily=Manrope;fontSize=12;fontColor=#FFFFFF;endArrow=none;endFill=0;startArrow=none;startFill=0;entryX=0.5;entryY=0;entryDx=0;entryDy=0;exitX=1;exitY=1;exitDx=0;exitDy=0;strokeColor=#98A2AE;elbow=vertical;" parent="YSi4LTzmmD1kewjckfzm-1" source="YSi4LTzmmD1kewjckfzm-45" target="uKsjjwP2O_oyQqss1sfx-11" edge="1">
          <mxGeometry relative="1" as="geometry">
            <mxPoint x="552.5" y="339.5" as="sourcePoint" />
            <mxPoint x="536.5" y="362" as="targetPoint" />
          </mxGeometry>
        </mxCell>
      </root>
    </mxGraphModel>
  </diagram>
</mxfile>
